<svg xmlns="http://www.w3.org/2000/svg" viewBox="0 0 100 125"><path d="M99.92 40.071c-.632-3.197-4.878-5.282-6.098-8.223-1.242-2.992.273-7.465-1.507-10.125-1.794-2.679-6.513-2.983-8.785-5.255-2.271-2.272-2.575-6.99-5.256-8.785-2.66-1.78-7.132-.266-10.124-1.507C65.209 4.957 63.125.712 59.928.079c-3.104-.613-6.647 2.5-9.929 2.5S43.174-.534 40.07.079c-3.196.632-5.281 4.878-8.222 6.097-2.993 1.242-7.465-.273-10.125 1.507-2.68 1.794-2.983 6.513-5.255 8.785-2.273 2.272-6.991 2.576-8.786 5.255-1.781 2.66-.265 7.133-1.506 10.125-1.22 2.941-5.465 5.027-6.097 8.223-.613 3.102 2.5 6.647 2.5 9.929 0 3.283-3.113 6.827-2.5 9.929.632 3.196 4.877 5.281 6.097 8.223 1.241 2.993-.274 7.465 1.506 10.125 1.794 2.681 6.514 2.982 8.786 5.255 2.272 2.274 2.575 6.992 5.256 8.786 2.659 1.78 7.132.267 10.125 1.507 2.94 1.219 5.025 5.464 8.222 6.096 3.104.614 6.647-2.499 9.929-2.499 3.281 0 6.825 3.113 9.93 2.499 3.196-.632 5.279-4.877 8.221-6.096 2.992-1.242 7.464.272 10.126-1.507 2.679-1.796 2.982-6.514 5.255-8.786 2.271-2.272 6.99-2.576 8.784-5.255 1.78-2.66.265-7.132 1.507-10.125 1.22-2.941 5.466-5.026 6.098-8.223.614-3.104-2.501-6.646-2.501-9.929s3.114-6.827 2.5-9.929zM77.831 19.152c.819-.103 2.312-.069 3.306-.458.027.029.048.062.076.091 1.022 1.022 2.258 1.707 3.488 2.27-1.314.876-2.378 2.474-2.845 3.809a8.916 8.916 0 0 0-.166.527 40.367 40.367 0 0 0-6.042-6.257c.601.109 1.322.127 2.183.018zM64.397 7.662c.748.608 1.567 1.156 2.498 1.542 1.418.588 2.89.745 4.319.786-1.012 1.34-1.455 3.387-1.38 4.908.003.081.012.151.018.229a39.86 39.86 0 0 0-10.874-4.239c1.533-.726 3.269-2.818 5.419-3.226zM3.935 60.421c-.332-.414-.577-.805-.64-1.129-.138-.696.494-2.198 1.001-3.406.731-1.744 1.56-3.721 1.56-5.886 0-1.42-.367-2.75-.819-3.994.895.199 2.039-.072 3.436-1.117 4.096-3.059-3.15-2.993-4.479-5.382.449-.549 1.042-1.139 1.6-1.691 1.316-1.3 2.807-2.775 3.611-4.711.817-1.972.809-4.093.801-5.965-.002-.671-.004-1.381.04-2.01.956 1.002 2.721 1.491 4.015 1.466 4.056-.074 1.901-2.978 1.711-5.768 1.069-.523 2.123-1.152 3.013-2.042 1.5-1.5 2.298-3.457 3.002-5.184a34.89 34.89 0 0 1 .66-1.547c.576 1.153 1.899 2.132 3.004 2.556 3.721 1.428 2.809-2.031 3.681-4.633 1.32-.058 2.669-.234 3.973-.774 1.937-.802 3.412-2.294 4.713-3.61.266-.271.542-.549.819-.817.155 1.279.989 2.643 1.843 3.441 3.087 2.885 3.478-1.101 5.467-3.201 1.261.461 2.61.839 4.053.839 1.962 0 3.76-.682 5.379-1.354-.395 1.469-.087 3.331.493 4.583.275.594.553 1.03.832 1.35A40.245 40.245 0 0 0 50 9.866C27.834 9.866 9.866 27.836 9.866 50c0 4.017.597 7.892 1.696 11.552-2.418-.346-5.568-.595-7.627-1.131zm6.563 16.137c-.029-.035-.068-.069-.091-.104-.412-.614-.405-2.195-.4-3.59.007-1.872.016-3.996-.802-5.968-.071-.171-.173-.319-.254-.484a8.223 8.223 0 0 0 4.051-.836 40.165 40.165 0 0 0 5.298 9.023c-2.478.501-5.245 1.811-7.802 1.959zm15.761 13.436c-.896-.006-2.188-.05-2.711-.4-.631-.423-1.232-1.896-1.761-3.194-.328-.806-.684-1.662-1.115-2.497 1.215-.441 2.668-1.363 4.509-2.374a40.194 40.194 0 0 0 6.608 4.233c-1.415 1.426-3.267 3.402-5.53 4.232zM50 94.145c-2.167 0-4.142.829-5.886 1.561-1.193.5-2.424 1.019-3.198 1.019-.078 0-.149-.006-.209-.018-.718-.142-1.75-1.148-2.693-2.102 1.68-.96 3.47-2.838 5.017-5.086 2.265.396 4.589.615 6.97.615.206 0 .409-.012.616-.016.208 1.346.584 2.536 1.471 4.287-.677-.148-1.368-.26-2.088-.26zm0-7.093c-20.463 0-37.051-16.591-37.051-37.052 0-20.462 16.587-37.051 37.051-37.051 20.463 0 37.05 16.588 37.05 37.051 0 20.461-16.587 37.052-37.05 37.052z"/><circle cx="50" cy="50" r="34.853"/><text y="115" font-size="5" font-weight="bold" font-family="'Helvetica Neue', Helvetica, Arial-Unicode, Arial, Sans-serif">Created by Massimo Ippolito</text><text y="120" font-size="5" font-weight="bold" font-family="'Helvetica Neue', Helvetica, Arial-Unicode, Arial, Sans-serif">from the Noun Project</text></svg>