<svg xmlns="http://www.w3.org/2000/svg" viewBox="0 0 100 125"><path d="M45.848 65.152a10.745 10.745 0 0 1 3.088 8.784 10.746 10.746 0 0 1-8.784-3.087 10.74 10.74 0 0 1-3.089-8.786 10.757 10.757 0 0 1 8.785 3.089zm8.304 0a10.746 10.746 0 0 0-3.089 8.784 10.745 10.745 0 0 0 8.784-3.087 10.747 10.747 0 0 0 3.089-8.786 10.757 10.757 0 0 0-8.784 3.089zM37.063 51.063a10.747 10.747 0 0 0 3.089 8.786 10.748 10.748 0 0 0 8.784 3.087c.34-3.13-.688-6.385-3.088-8.784a10.757 10.757 0 0 0-8.785-3.089zm17.089 3.089a10.746 10.746 0 0 0-3.089 8.784 10.745 10.745 0 0 0 8.784-3.087 10.747 10.747 0 0 0 3.089-8.786 10.757 10.757 0 0 0-8.784 3.089zM37.063 73.063a10.747 10.747 0 0 0 3.089 8.786 10.748 10.748 0 0 0 8.784 3.087c.34-3.13-.688-6.385-3.088-8.784a10.757 10.757 0 0 0-8.785-3.089zm17.089 3.089a10.746 10.746 0 0 0-3.089 8.784 10.745 10.745 0 0 0 8.784-3.087 10.747 10.747 0 0 0 3.089-8.786 10.757 10.757 0 0 0-8.784 3.089zM45 42.397V20a1 1 0 0 0-2 0v21.118a10.75 10.75 0 0 0-4-1.076V24a1 1 0 0 0-2 0v17.05a10.73 10.73 0 0 0 3.153 7.8 10.748 10.748 0 0 0 8.784 3.087c.34-3.13-.688-6.385-3.088-8.784-.272-.272-.557-.52-.849-.756zm6.063 9.54a10.745 10.745 0 0 0 8.784-3.087c2.15-2.15 3.2-4.982 3.152-7.799L63 24a1 1 0 1 0-2 0v16.042a10.75 10.75 0 0 0-4 1.076V20a1 1 0 1 0-2 0v22.397c-.291.236-.576.484-.848.755a10.752 10.752 0 0 0-3.089 8.785zM51 28.925V16a1 1 0 1 0-2 0v12.924a10.752 10.752 0 0 0 1 15.867 10.748 10.748 0 0 0 1-15.866z"/><text y="115" font-size="5" font-weight="bold" font-family="'Helvetica Neue', Helvetica, Arial-Unicode, Arial, Sans-serif">Created by The Crew at Fusionary</text><text y="120" font-size="5" font-weight="bold" font-family="'Helvetica Neue', Helvetica, Arial-Unicode, Arial, Sans-serif">from the Noun Project</text></svg>