<svg xmlns="http://www.w3.org/2000/svg" xmlns:xlink="http://www.w3.org/1999/xlink" version="1.1" x="0px" y="0px" viewBox="0 0 100 125" enable-background="new 0 0 100 100" xml:space="preserve"><path d="M45.848,65.152c2.4,2.399,3.429,5.654,3.088,8.784c-3.133,0.341-6.383-0.688-8.784-3.087  c-2.402-2.401-3.431-5.654-3.089-8.786C40.195,61.725,43.447,62.752,45.848,65.152z M54.152,65.152  c-2.4,2.399-3.43,5.654-3.089,8.784c3.133,0.341,6.384-0.688,8.784-3.087c2.401-2.401,3.43-5.654,3.089-8.786  C59.805,61.725,56.553,62.752,54.152,65.152z M37.063,51.063c-0.341,3.132,0.688,6.385,3.089,8.786  c2.4,2.398,5.651,3.428,8.784,3.087c0.34-3.13-0.688-6.385-3.088-8.784C43.447,51.752,40.195,50.725,37.063,51.063z M54.152,54.152  c-2.4,2.399-3.43,5.654-3.089,8.784c3.133,0.341,6.384-0.688,8.784-3.087c2.401-2.401,3.43-5.654,3.089-8.786  C59.805,50.725,56.553,51.752,54.152,54.152z M37.063,73.063c-0.341,3.132,0.688,6.385,3.089,8.786  c2.4,2.398,5.651,3.428,8.784,3.087c0.34-3.13-0.688-6.385-3.088-8.784C43.447,73.752,40.195,72.725,37.063,73.063z M54.152,76.152  c-2.4,2.399-3.43,5.654-3.089,8.784c3.133,0.341,6.384-0.688,8.784-3.087c2.401-2.401,3.43-5.654,3.089-8.786  C59.805,72.725,56.553,73.752,54.152,76.152z M45,42.397V20c0-0.552-0.448-1-1-1s-1,0.448-1,1v21.118  c-1.265-0.624-2.623-0.978-4-1.076V24c0-0.552-0.448-1-1-1s-1,0.448-1,1c0,0-0.001,17.032,0,17.05  c-0.049,2.817,1.002,5.65,3.153,7.8c2.4,2.398,5.651,3.428,8.784,3.087c0.34-3.13-0.688-6.385-3.088-8.784  C45.577,42.881,45.292,42.633,45,42.397z M51.063,51.937c3.133,0.341,6.384-0.688,8.784-3.087c2.15-2.15,3.2-4.982,3.152-7.799  C63,41.033,63,24,63,24c0-0.552-0.447-1-1-1s-1,0.448-1,1v16.042c-1.377,0.098-2.735,0.452-4,1.076V20c0-0.552-0.447-1-1-1  s-1,0.448-1,1v22.397c-0.291,0.236-0.576,0.484-0.848,0.755C51.752,45.552,50.723,48.807,51.063,51.937z M51,28.925V16  c0-0.552-0.447-1-1-1c-0.552,0-1,0.448-1,1v12.924c-1.871,1.937-3.028,4.567-3.028,7.473c0.002,3.393,1.572,6.419,4.028,8.394  c2.454-1.972,4.028-5.001,4.028-8.395C54.027,33.491,52.869,30.862,51,28.925z"/><text x="0" y="115" fill="#000000" font-size="5px" font-weight="bold" font-family="'Helvetica Neue', Helvetica, Arial-Unicode, Arial, Sans-serif">Created by The Crew at Fusionary</text><text x="0" y="120" fill="#000000" font-size="5px" font-weight="bold" font-family="'Helvetica Neue', Helvetica, Arial-Unicode, Arial, Sans-serif">from the Noun Project</text></svg>